<svg width="20" height="20" viewBox="0 0 20 20" fill="none" xmlns="http://www.w3.org/2000/svg">
<path d="M9.99875 0C4.4775 0 0 4.495 0 10.04C0 14.475 2.865 18.2375 6.84 19.5662C7.34 19.6587 7.5225 19.3487 7.5225 19.0825C7.5225 18.8437 7.51375 18.2125 7.50875 17.375C4.7275 17.9812 4.14 16.0287 4.14 16.0287C3.68625 14.8687 3.03 14.56 3.03 14.56C2.12125 13.9375 3.0975 13.95 3.0975 13.95C4.10125 14.0212 4.62875 14.985 4.62875 14.985C5.52125 16.5187 6.97 16.0762 7.54 15.8187C7.63 15.17 7.88875 14.7275 8.175 14.4762C5.955 14.2225 3.62 13.3612 3.62 9.515C3.62 8.41875 4.01 7.5225 4.65 6.82C4.54625 6.56625 4.20375 5.545 4.7475 4.16375C4.7475 4.16375 5.5875 3.89375 7.4975 5.1925C8.295 4.97 9.15 4.85875 10.0013 4.855C10.85 4.86 11.7062 4.97 12.505 5.19375C14.4137 3.895 15.2525 4.165 15.2525 4.165C15.7975 5.5475 15.455 6.5675 15.3525 6.82125C15.9937 7.52375 16.38 8.42 16.38 9.51625C16.38 13.3725 14.0425 14.2212 11.815 14.47C12.1737 14.78 12.4937 15.3925 12.4937 16.3287C12.4937 17.6712 12.4812 18.7537 12.4812 19.0825C12.4812 19.3512 12.6613 19.6637 13.1687 19.565C17.1375 18.235 20 14.4737 20 10.04C20 4.495 15.5225 0 9.99875 0Z" fill="#B4B4B8"/>
</svg>
